HIERARCHY
ROOT Hips
{
	OFFSET 0.000000 0.000000 0.000000
	CHANNELS 6 Xposition Yposition Zposition Zrotation Yrotation Xrotation 
	JOINT LeftUpLeg_virtual
	{
		OFFSET 0.000000 0.000000 0.000000
		CHANNELS 3 Zrotation Yrotation Xrotation
		JOINT LeftUpLeg
		{
			OFFSET 10.205400 -3.823500 0.155100
			CHANNELS 3 Zrotation Yrotation Xrotation
			JOINT LeftLeg
			{
				OFFSET 0.708757 -12.982077 0.567790
				CHANNELS 3 Zrotation Yrotation Xrotation
				JOINT LeftFoot
				{
					OFFSET -0.708756 -10.717838 -2.184338
					CHANNELS 3 Zrotation Yrotation Xrotation
					JOINT LeftToeBase
					{
						OFFSET 0.108149 -7.191104 7.560241
						CHANNELS 3 Zrotation Yrotation Xrotation
						End Site
						{
							OFFSET 0.000000 0.000000 0.000000
						}
					}
				}
			}
		}
	}
	JOINT RightUpLeg_virtual
	{
		OFFSET 0.000000 0.000000 0.000000
		CHANNELS 3 Zrotation Yrotation Xrotation
		JOINT RightUpLeg
		{
			OFFSET -10.205400 -3.823500 0.005500
			CHANNELS 3 Zrotation Yrotation Xrotation
			JOINT RightLeg
			{
				OFFSET -0.708756 -12.982134 0.610632
				CHANNELS 3 Zrotation Yrotation Xrotation
				JOINT RightFoot
				{
					OFFSET 0.708754 -10.717769 -1.945823
					CHANNELS 3 Zrotation Yrotation Xrotation
					JOINT RightToeBase
					{
						OFFSET -0.108140 -7.191069 7.372968
						CHANNELS 3 Zrotation Yrotation Xrotation
						End Site
						{
							OFFSET 0.000000 0.000000 0.000000
						}
					}
				}
			}
		}
	}
	JOINT Spine_virtual
	{
		OFFSET 0.000000 0.000000 0.000000
		CHANNELS 3 Zrotation Yrotation Xrotation
		JOINT Spine
		{
			OFFSET 0.000000 6.876099 0.125700
			CHANNELS 3 Zrotation Yrotation Xrotation
			JOINT Spine1
			{
				OFFSET 0.000000 8.022060 0.146608
				CHANNELS 3 Zrotation Yrotation Xrotation
				JOINT Spine2
				{
					OFFSET 0.000000 9.168068 0.167552
					CHANNELS 3 Zrotation Yrotation Xrotation
					JOINT Neck_virtual
					{
						OFFSET 0.000000 0.000000 0.000000
						CHANNELS 3 Zrotation Yrotation Xrotation
						JOINT Neck
						{
							OFFSET 0.000000 10.314075 0.188496
							CHANNELS 3 Zrotation Yrotation Xrotation
							JOINT Head
							{
								OFFSET 0.000000 7.643700 -2.377400
								CHANNELS 3 Zrotation Yrotation Xrotation
								End Site
								{
									OFFSET 0.000000 0.000000 0.000000
								}
							}
						}
					}
					JOINT LeftShoulder_virtual
					{
						OFFSET 0.000000 0.000000 0.000000
						CHANNELS 3 Zrotation Yrotation Xrotation
						JOINT LeftShoulder
						{
							OFFSET 4.392200 8.824978 0.174984
							CHANNELS 3 Zrotation Yrotation Xrotation
							JOINT LeftArm
							{
								OFFSET 8.771219 -2.981674 -0.026999
								CHANNELS 3 Zrotation Yrotation Xrotation
								JOINT LeftForeArm
								{
									OFFSET 8.512804 0.000000 -0.000000
									CHANNELS 3 Zrotation Yrotation Xrotation
									JOINT LeftHand
									{
										OFFSET 18.484802 0.000000 -0.000000
										CHANNELS 3 Zrotation Yrotation Xrotation
										End Site
										{
											OFFSET 0.000000 0.000000 0.000000
										}
									}
								}
							}
						}
					}
					JOINT RightShoulder_virtual
					{
						OFFSET 0.000000 0.000000 0.000000
						CHANNELS 3 Zrotation Yrotation Xrotation
						JOINT RightShoulder
						{
							OFFSET -4.392200 8.824993 0.141379
							CHANNELS 3 Zrotation Yrotation Xrotation
							JOINT RightArm
							{
								OFFSET -8.771282 -2.981682 -0.094208
								CHANNELS 3 Zrotation Yrotation Xrotation
								JOINT RightForeArm
								{
									OFFSET -8.494598 0.000000 0.000000
									CHANNELS 3 Zrotation Yrotation Xrotation
									JOINT RightHand
									{
										OFFSET -18.483803 0.000000 0.000001
										CHANNELS 3 Zrotation Yrotation Xrotation
										End Site
										{
											OFFSET 0.000000 0.000000 0.000000
										}
									}
								}
							}
						}
					}
				}
			}
		}
	}
}
MOTION
Frames: 8
Frame Time: 0.033333
26.725298 34.481926 -44.329464 179.129716 -21.794847 -178.802400 -3.801468 -3.879482 13.074480 -0.186184 -8.787643 -55.718812 3.923133 8.247018 13.756013 -8.102430 12.341210 30.179778 0.000000 0.000000 0.000000 3.470208 -3.909239 13.448061 19.985888 13.973532 -8.561113 -7.924244 2.454685 30.900537 8.986278 6.350978 7.528854 0.000000 0.000000 0.000000 -2.194986 -1.281885 0.790423 -5.734045 6.563458 -9.257535 -1.395935 -1.730898 10.964662 0.109275 0.025344 0.069343 -1.111226 -0.080649 11.510323 1.777133 -3.039077 20.017394 0.000000 0.000000 0.000000 1.005299 0.474870 8.054962 0.057495 -10.403994 4.856284 -46.163811 32.750863 6.446424 -166.210509 -80.131294 -177.667004 0.000000 0.000000 0.000000 -4.183015 1.658324 7.219997 34.147606 4.545065 8.622767 33.866308 -24.127992 16.864017 -6.621632 51.353419 -5.308967 0.000000 0.000000 0.000000 
26.754185 34.454487 -44.149780 179.138131 -22.494376 -178.829106 -3.684632 -3.877460 12.904296 -0.267944 -9.829314 -55.565197 4.545376 8.083730 12.521478 -7.807343 11.521115 31.775461 0.000000 0.000000 0.000000 3.613295 -3.553844 13.256826 20.281372 13.357862 -8.637656 -8.277836 2.325206 31.148661 8.827426 6.297655 7.015373 0.000000 0.000000 0.000000 -1.980316 -1.107890 0.304136 -5.505778 6.158555 -9.257867 -1.224606 -1.794197 10.906511 0.000421 0.036208 0.061619 -1.128122 -0.064581 11.404876 1.585072 -2.974254 20.258927 0.000000 0.000000 0.000000 0.944862 0.401876 7.843015 0.161005 -10.386509 5.149017 -45.663438 32.478526 6.787431 -166.791717 -80.227641 -177.130096 0.000000 0.000000 0.000000 -4.105812 1.610380 7.068140 34.495392 4.522934 8.997010 33.878705 -24.836702 17.058590 -6.551613 51.365167 -5.350967 0.000000 0.000000 0.000000 
26.735552 34.525211 -43.935024 179.044352 -23.032952 -178.817371 -3.550048 -4.261851 12.718303 0.844172 -11.049784 -55.548467 4.786093 8.169833 11.709381 -7.937133 10.373015 33.188313 0.000000 0.000000 0.000000 3.880632 -3.581222 12.733918 20.146210 13.886724 -8.431521 -8.423829 2.437222 31.288325 8.366402 6.263991 6.721990 0.000000 0.000000 0.000000 -1.822866 -1.147624 -0.316782 -5.330178 6.019880 -9.205172 -1.212257 -1.742449 10.821364 -0.021865 0.059611 0.072551 -1.251361 0.024019 11.352372 1.601170 -2.834438 20.485158 0.000000 0.000000 0.000000 0.726836 0.431442 7.664269 0.161202 -9.961857 5.367325 -45.636592 32.544260 6.651215 -166.067553 -79.874390 -177.811339 0.000000 0.000000 0.000000 -4.222827 1.636176 6.886406 34.837872 4.752849 9.422284 33.565295 -24.977756 17.723648 -6.487545 51.436894 -5.240411 0.000000 0.000000 0.000000 
26.625568 34.684406 -43.748653 178.938812 -23.617259 -178.733292 -3.240867 -5.352246 11.916658 3.298999 -11.840363 -54.885129 3.901038 5.432919 10.949428 -11.089878 8.032241 33.792101 0.000000 0.000000 0.000000 4.250944 -4.135050 12.024069 19.712197 14.507774 -8.099494 -8.235680 3.053939 31.289124 7.695744 6.342097 6.856512 0.000000 0.000000 0.000000 -1.465004 -1.618038 -1.079784 -5.327405 6.035902 -9.071856 -1.520643 -1.619595 10.796123 0.103398 0.021238 0.014088 -1.375785 0.125806 11.320182 1.587276 -2.894026 20.527922 0.000000 0.000000 0.000000 0.571220 0.626287 7.584703 -0.078017 -9.120827 5.535434 -46.332595 32.920235 6.025790 -166.236013 -79.301870 -177.513201 0.000000 0.000000 0.000000 -4.358956 1.812558 6.883519 35.189428 5.381195 9.777310 32.814005 -24.673490 18.462305 -6.293894 51.538586 -4.902075 0.000000 0.000000 0.000000 
26.435120 34.880405 -43.600433 179.537533 -23.831630 -178.777237 -2.245934 -6.343711 10.738941 6.597090 -13.261359 -54.463846 3.659490 1.205008 10.345191 -16.201134 4.598159 34.353632 0.000000 0.000000 0.000000 5.092629 -4.569904 11.139132 19.234318 15.435015 -7.723169 -7.853071 4.134306 31.192832 6.739871 6.505636 7.456314 0.000000 0.000000 0.000000 -0.778825 -2.129019 -1.877545 -4.892543 6.351891 -8.976327 -1.702738 -1.476430 10.798153 0.013509 0.011696 0.098007 -1.555539 0.351944 11.117321 1.591234 -2.903444 20.429649 0.000000 0.000000 0.000000 0.482051 0.819392 7.547800 -0.450129 -8.082527 5.666502 -47.196129 33.443468 5.817599 -167.973012 -78.490881 -175.560409 0.000000 0.000000 0.000000 -4.510923 2.058854 6.770516 35.628825 5.961140 10.042093 31.958739 -24.028708 18.994812 -6.611844 51.669418 -5.074158 0.000000 0.000000 0.000000 
26.222225 35.087887 -43.468124 179.701649 -24.222113 -178.619569 -1.471854 -7.206662 9.638756 9.017614 -14.508483 -54.443814 3.065300 -0.468040 10.225478 -18.750322 3.046864 35.190832 0.000000 0.000000 0.000000 5.883763 -5.090988 10.215853 18.105993 16.224404 -7.467637 -7.141064 4.975247 31.214719 5.803087 6.857920 8.114497 0.000000 0.000000 0.000000 -0.447141 -2.788318 -2.566974 -4.447907 6.761795 -8.843217 -1.845884 -1.378656 10.786136 0.024795 -0.031847 0.085730 -1.736955 0.517379 11.115853 1.428884 -3.013226 20.254856 0.000000 0.000000 0.000000 0.305777 1.103369 7.535872 -0.815101 -7.111818 5.827065 -47.835377 33.685738 5.835699 -167.194070 -78.023846 -176.058945 0.000000 0.000000 0.000000 -4.717741 2.348182 6.902868 35.890291 6.733378 10.198851 31.228991 -23.340974 19.488362 -6.743406 51.936765 -5.036233 0.000000 0.000000 0.000000 
26.042414 35.268044 -43.356789 179.942604 -25.345072 -178.604024 -0.836128 -8.496658 8.835872 11.648959 -15.105814 -54.719914 5.778877 -3.499683 12.671339 -17.037659 3.672460 36.132315 0.000000 0.000000 0.000000 6.637487 -6.204490 9.303686 17.313534 17.071795 -7.219090 -6.260620 5.827654 31.343181 4.480223 7.121011 8.811474 0.000000 0.000000 0.000000 -0.190123 -3.393051 -2.895504 -3.873363 7.207888 -8.758182 -1.885196 -1.356390 10.708381 0.071120 -0.115663 0.159986 -1.780090 0.613873 10.965076 1.136653 -3.117067 20.056948 0.000000 0.000000 0.000000 0.235396 0.959765 7.714857 -1.114036 -6.530352 5.892375 -48.456647 33.797887 6.338041 -167.633988 -78.087176 -175.436291 0.000000 0.000000 0.000000 -4.743076 2.224365 6.804243 36.197120 7.136384 10.261450 30.531222 -22.604228 19.479478 -7.027508 52.214505 -5.230938 0.000000 0.000000 0.000000 
25.862694 35.377941 -43.243355 179.456732 -25.883407 -178.354886 -0.655555 -9.070480 8.340692 12.168546 -15.350227 -54.754375 5.696162 -2.921984 13.254964 -14.337276 4.988190 38.196921 0.000000 0.000000 0.000000 6.273269 -6.617766 8.586100 17.596259 17.963205 -6.758040 -6.218280 6.725716 31.301118 3.050377 7.379999 9.675935 0.000000 0.000000 0.000000 -0.254050 -3.872246 -3.070913 -3.515898 7.708823 -8.724828 -2.083408 -1.301588 10.649921 0.100933 -0.130059 0.169320 -1.798550 0.657454 10.797435 0.772971 -3.140676 19.765985 0.000000 0.000000 0.000000 0.331992 1.115558 7.589168 -1.203064 -5.854429 5.990927 -48.595672 33.876553 7.591896 -167.125973 -78.292013 -175.552596 0.000000 0.000000 0.000000 -4.757558 2.409481 6.779577 36.472131 7.571193 10.248311 29.997740 -21.995279 19.412048 -7.266220 52.723996 -5.478353 0.000000 0.000000 0.000000 
